<?xml version="1.0" encoding="UTF-8"?>
<svg width="266px" height="66px" viewBox="0 0 266 66" version="1.1" xmlns="http://www.w3.org/2000/svg" xmlns:xlink="http://www.w3.org/1999/xlink">
    <!-- Generator: sketchtool 40.3 (33839) - http://www.bohemiancoding.com/sketch -->
    <title>57918C69-CF64-4AF2-A023-E35CC5720B8B</title>
    <desc>Created with sketchtool.</desc>
    <defs>
        <filter x="-50%" y="-50%" width="200%" height="200%" filterUnits="objectBoundingBox" id="filter-1">
            <feOffset dx="0" dy="1" in="SourceAlpha" result="shadowOffsetOuter1"></feOffset>
            <feGaussianBlur stdDeviation="1" in="shadowOffsetOuter1" result="shadowBlurOuter1"></feGaussianBlur>
            <feColorMatrix values="0 0 0 0 0   0 0 0 0 0   0 0 0 0 0  0 0 0 0.5 0" type="matrix" in="shadowBlurOuter1" result="shadowMatrixOuter1"></feColorMatrix>
            <feMerge>
                <feMergeNode in="shadowMatrixOuter1"></feMergeNode>
                <feMergeNode in="SourceGraphic"></feMergeNode>
            </feMerge>
        </filter>
        <filter x="-50%" y="-50%" width="200%" height="200%" filterUnits="objectBoundingBox" id="filter-2">
            <feOffset dx="0" dy="1" in="SourceAlpha" result="shadowOffsetOuter1"></feOffset>
            <feGaussianBlur stdDeviation="1" in="shadowOffsetOuter1" result="shadowBlurOuter1"></feGaussianBlur>
            <feColorMatrix values="0 0 0 0 0   0 0 0 0 0   0 0 0 0 0  0 0 0 0.3 0" type="matrix" in="shadowBlurOuter1" result="shadowMatrixOuter1"></feColorMatrix>
            <feMerge>
                <feMergeNode in="shadowMatrixOuter1"></feMergeNode>
                <feMergeNode in="SourceGraphic"></feMergeNode>
            </feMerge>
        </filter>
    </defs>
    <g id="Page-1" stroke="none" stroke-width="1" fill="none" fill-rule="evenodd">
        <g id="Home-screen-search" transform="translate(-242.000000, -7.000000)">
            <g id="header">
                <g id="rebel-weekly-logo" transform="translate(242.000000, 7.000000)">
                    <g id="logo" filter="url(#filter-1)" opacity="0.899999976">
                        <path d="M25.340451,61.5702924 L6.45995878,50.5937979 C3.68487332,48.9972168 2,46.0535206 2,42.8603586 L2,20.9073696 C2,17.7142075 3.68487332,14.7705113 6.45995878,13.1739303 L25.340451,2.19743576 C28.1155364,0.600854746 31.4852831,0.600854746 34.2108134,2.19743576 L53.0913056,13.1739303 C55.8663911,14.7705113 57.5512644,17.7142075 57.5512644,20.9073696 L57.5512644,42.8603586 C57.5512644,46.0535206 55.8663911,48.9972168 53.0913056,50.5937979 L34.2108134,61.5702924 C31.4852831,63.1668734 28.1155364,63.1668734 25.340451,61.5702924 L25.340451,61.5702924 Z" id="Shape" fill="#FFFFFF"></path>
                        <path d="M35.909296,47.9960058 C35.8606753,47.9960058 35.8606753,47.9960058 35.8120547,47.9462435 L15.44,22.4181818 L26.0879236,22.4181818 L46.3141162,47.7969566 C46.4113576,47.8964812 46.3627369,47.9960058 46.2654956,47.9960058 L35.909296,47.9960058 Z" id="Shape" fill="#6D9FB5" opacity="0.560000002"></path>
                        <path d="M47.5782533,26.6692748 C47.5782533,33.3374234 42.2299812,38.6619899 35.763434,38.6619899 L24.4834419,38.6619899 L24.4834419,48.0670652 C24.4834419,48.1168275 24.4348213,48.1665898 24.3862006,48.1665898 L15.5372413,48.1665898 C15.4886207,48.1665898 15.44,48.1168275 15.44,48.0670652 L15.44,30.3516852 C15.44,30.3019229 15.4886207,30.2521606 15.5372413,30.2521606 L35.909296,30.2521606 C37.8541222,30.2023983 39.4586038,28.5602423 39.4099832,26.5199878 C39.3613625,24.5294957 37.7568809,22.937102 35.8120547,22.937102 L15.44,22.937102 L19.4268938,14.5272727 L35.8120547,14.5272727 C42.3272225,14.577035 47.6268739,20.0011261 47.5782533,26.6692748 L47.5782533,26.6692748 Z" id="Shape" fill="#59B6DC"></path>
                    </g>
                    <g id="rebel-weekly" filter="url(#filter-2)" transform="translate(75.000000, 21.000000)" fill="#FAFEFF">
                        <path d="M15.791,20 C16.207,20 16.441,19.636 16.207,19.298 L16.207,19.324 L11.839,12.304 C13.555,11.706 15.427,10.354 15.427,7.286 C15.427,1.8 9.109,1.8 9.109,1.8 L3.337,1.8 C3.025,1.8 2.791,2.034 2.791,2.268 L2.791,5.206 L4.117,7.338 C4.481,7.91 4.871,8.43 5.209,9.002 L3.337,9.002 C3.025,9.002 2.791,9.236 2.791,9.47 L2.791,19.558 C2.791,19.766 3.025,20 3.337,20 L6.223,20 C6.561,20 6.769,19.766 6.769,19.558 L6.769,12.798 L7.549,12.798 L11.917,19.766 L11.891,19.74 C11.943,19.87 12.229,20 12.385,20 L15.791,20 Z M7.471,5.596 L9.109,5.596 C9.603,5.596 11.423,5.596 11.423,7.286 C11.423,8.56 10.435,8.924 9.603,8.976 L7.471,5.596 Z M30.533,5.518 C30.845,5.518 31.079,5.284 31.079,5.05 L31.079,2.268 C31.079,2.034 30.845,1.8 30.533,1.8 L19.223,1.8 C18.885,1.8 18.677,2.034 18.677,2.268 L18.677,19.558 C18.677,19.766 18.885,20 19.223,20 L30.741,20 C31.079,20 31.313,19.766 31.313,19.558 L31.313,16.672 C31.313,16.438 31.079,16.204 30.741,16.204 L22.655,16.204 L22.655,12.72 L29.311,12.72 C29.623,12.72 29.831,12.486 29.831,12.278 L29.831,9.47 C29.831,9.236 29.623,9.002 29.311,9.002 L22.655,9.002 L22.655,5.518 L30.533,5.518 Z M46.575,7.104 C46.575,1.67 40.283,1.8 40.283,1.8 L34.511,1.8 C34.173,1.8 33.965,2.034 33.965,2.268 L33.965,19.558 C33.965,19.766 34.173,20 34.511,20 L40.283,20 C41.505,20 46.835,19.766 46.835,14.592 C46.835,14.592 46.965,12.044 44.443,10.874 C45.691,10.224 46.575,9.054 46.575,7.104 L46.575,7.104 Z M37.917,5.466 L40.283,5.466 C40.283,5.466 42.571,5.44 42.571,7.312 C42.571,9.002 40.283,9.002 40.283,9.002 L37.917,9.002 L37.917,5.466 Z M40.283,16.256 L37.917,16.256 L37.917,12.824 L40.283,12.824 C40.283,12.824 42.831,12.694 42.831,14.514 C42.831,15.996 41.271,16.256 40.283,16.256 L40.283,16.256 Z M61.499,5.518 C61.811,5.518 62.045,5.284 62.045,5.05 L62.045,2.268 C62.045,2.034 61.811,1.8 61.499,1.8 L50.189,1.8 C49.851,1.8 49.643,2.034 49.643,2.268 L49.643,19.558 C49.643,19.766 49.851,20 50.189,20 L61.707,20 C62.045,20 62.279,19.766 62.279,19.558 L62.279,16.672 C62.279,16.438 62.045,16.204 61.707,16.204 L53.621,16.204 L53.621,12.72 L60.277,12.72 C60.589,12.72 60.797,12.486 60.797,12.278 L60.797,9.47 C60.797,9.236 60.589,9.002 60.277,9.002 L53.621,9.002 L53.621,5.518 L61.499,5.518 Z M68.883,16.204 L68.883,2.268 C68.883,2.034 68.649,1.8 68.337,1.8 L65.425,1.8 C65.113,1.8 64.879,2.034 64.879,2.268 L64.879,19.558 C64.879,19.766 65.113,20 65.425,20 L74.733,20 C75.071,20 75.305,19.766 75.305,19.558 L75.305,16.672 C75.305,16.438 75.071,16.204 74.733,16.204 L68.883,16.204 Z M111.159,2.424 C111.289,2.112 111.081,1.8 110.639,1.8 L107.545,1.8 C107.311,1.8 107.077,1.93 107.025,2.112 L103.749,11.316 L100.291,2.086 L100.291,2.112 C100.239,1.93 100.005,1.8 99.771,1.8 L96.885,1.8 C96.651,1.8 96.443,1.93 96.391,2.112 L96.391,2.086 L92.907,11.264 C91.763,8.118 90.775,5.232 89.631,2.112 C89.605,1.93 89.371,1.8 89.137,1.8 L86.017,1.8 C85.679,1.8 85.393,2.138 85.523,2.424 L92.413,20.416 L92.387,20.39 C92.517,20.806 93.245,20.806 93.401,20.416 C95.039,16.126 96.703,11.836 98.315,7.546 L103.255,20.416 C103.411,20.806 104.061,20.806 104.217,20.416 L111.159,2.424 Z M125.147,5.518 C125.459,5.518 125.693,5.284 125.693,5.05 L125.693,2.268 C125.693,2.034 125.459,1.8 125.147,1.8 L113.837,1.8 C113.499,1.8 113.291,2.034 113.291,2.268 L113.291,19.558 C113.291,19.766 113.499,20 113.837,20 L125.355,20 C125.693,20 125.927,19.766 125.927,19.558 L125.927,16.672 C125.927,16.438 125.693,16.204 125.355,16.204 L117.269,16.204 L117.269,12.72 L123.925,12.72 C124.237,12.72 124.445,12.486 124.445,12.278 L124.445,9.47 C124.445,9.236 124.237,9.002 123.925,9.002 L117.269,9.002 L117.269,5.518 L125.147,5.518 Z M140.435,5.518 C140.747,5.518 140.981,5.284 140.981,5.05 L140.981,2.268 C140.981,2.034 140.747,1.8 140.435,1.8 L129.125,1.8 C128.787,1.8 128.579,2.034 128.579,2.268 L128.579,19.558 C128.579,19.766 128.787,20 129.125,20 L140.643,20 C140.981,20 141.215,19.766 141.215,19.558 L141.215,16.672 C141.215,16.438 140.981,16.204 140.643,16.204 L132.557,16.204 L132.557,12.72 L139.213,12.72 C139.525,12.72 139.733,12.486 139.733,12.278 L139.733,9.47 C139.733,9.236 139.525,9.002 139.213,9.002 L132.557,9.002 L132.557,5.518 L140.435,5.518 Z M158.453,2.528 C158.765,2.19 158.505,1.8 158.037,1.8 L154.423,1.8 C154.319,1.8 154.033,1.93 153.981,1.982 C151.953,4.478 149.899,6.974 147.871,9.496 L147.871,2.268 C147.871,2.034 147.637,1.8 147.325,1.8 L144.439,1.8 C144.101,1.8 143.867,2.034 143.867,2.268 L143.867,19.558 C143.867,19.766 144.101,20 144.439,20 L147.325,20 C147.637,20 147.871,19.766 147.871,19.558 L147.871,14.93 C148.183,14.618 148.417,14.306 148.703,13.994 L148.703,14.02 L148.937,13.734 L153.851,19.818 C153.903,19.87 154.189,20 154.293,20 L158.089,20 C158.557,20 158.817,19.61 158.505,19.272 L151.537,11.056 L158.453,2.528 Z M164.615,16.204 L164.615,2.268 C164.615,2.034 164.381,1.8 164.069,1.8 L161.157,1.8 C160.845,1.8 160.611,2.034 160.611,2.268 L160.611,19.558 C160.611,19.766 160.845,20 161.157,20 L170.465,20 C170.803,20 171.037,19.766 171.037,19.558 L171.037,16.672 C171.037,16.438 170.803,16.204 170.465,16.204 L164.615,16.204 Z M184.635,1.8 C184.531,1.8 184.297,1.878 184.193,1.982 L180.241,7.494 C178.863,5.57 177.615,3.906 176.263,1.982 C176.159,1.852 175.925,1.8 175.795,1.8 L172.285,1.8 C171.817,1.8 171.583,2.216 171.869,2.528 L171.843,2.528 C172.779,3.828 173.793,5.284 174.729,6.584 C175.873,8.222 177.095,9.86 178.239,11.498 L178.239,19.558 C178.239,19.766 178.473,20 178.785,20 L181.671,20 C182.009,20 182.217,19.766 182.217,19.558 L182.217,11.498 L188.613,2.528 L188.587,2.528 C188.873,2.216 188.639,1.8 188.171,1.8 L184.635,1.8 Z" id="REBEL-WEEKLY"></path>
                    </g>
                </g>
            </g>
        </g>
    </g>
</svg>