<?xml version="1.0" encoding="UTF-8"?>
<svg width="75px" height="83px" viewBox="0 0 75 83" version="1.1" xmlns="http://www.w3.org/2000/svg" xmlns:xlink="http://www.w3.org/1999/xlink">
    <!-- Generator: sketchtool 40.3 (33839) - http://www.bohemiancoding.com/sketch -->
    <title>B5514CD5-9C93-47C2-8ADF-32C0FEC80379</title>
    <desc>Created with sketchtool.</desc>
    <defs></defs>
    <g id="Page-1" stroke="none" stroke-width="1" fill="none" fill-rule="evenodd">
        <g id="Subscribing" transform="translate(-545.000000, -261.000000)">
            <g id="rebel-logo" transform="translate(545.000000, 261.000000)">
                <g id="Shape">
                    <path d="M31.1799917,81.0860365 L5.9579602,66.3916971 C2.25078497,64.2543387 0,60.313584 0,56.0388671 L0,26.6501883 C0,22.3754714 2.25078497,18.4347167 5.9579602,16.2973583 L31.1799917,1.60301884 C34.887167,-0.534339615 39.3887369,-0.534339615 43.0297126,1.60301884 L68.2517441,16.2973583 C71.9589194,18.4347167 74.2097043,22.3754714 74.2097043,26.6501883 L74.2097043,56.0388671 C74.2097043,60.313584 71.9589194,64.2543387 68.2517441,66.3916971 L43.0297126,81.0860365 C39.3887369,83.223395 34.887167,83.223395 31.1799917,81.0860365 L31.1799917,81.0860365 Z" fill="#E1F1F8"></path>
                    <path d="M45.2986778,62.9140077 C45.2337266,62.9140077 45.2337266,62.9140077 45.1687753,62.8473904 L17.9541985,28.6727273 L32.1785238,28.6727273 L59.1982469,62.6475386 C59.3281494,62.7807732 59.2631981,62.9140077 59.1332956,62.9140077 L45.2986778,62.9140077 Z" fill="#BCDBE8"></path>
                    <path d="M60.8869796,34.3637065 C60.8869796,43.2904217 53.7423413,50.4184703 45.103824,50.4184703 L30.0351323,50.4184703 L30.0351323,63.0091357 C30.0351323,63.075753 29.9701811,63.1423703 29.9052298,63.1423703 L18.084101,63.1423703 C18.0191497,63.1423703 17.9541985,63.075753 17.9541985,63.0091357 L17.9541985,39.293385 C17.9541985,39.2267678 18.0191497,39.1601505 18.084101,39.1601505 L45.2986778,39.1601505 C47.8967281,39.0935332 50.0401196,36.8951631 49.9751683,34.1638547 C49.9102171,31.4991636 47.7668256,29.3674107 45.1687753,29.3674107 L17.9541985,29.3674107 L23.2802016,18.1090909 L45.1687753,18.1090909 C53.8722438,18.1757082 60.9519308,25.4369914 60.8869796,34.3637065 L60.8869796,34.3637065 Z" fill="#59B6DC"></path>
                </g>
            </g>
        </g>
    </g>
</svg>