<?xml version="1.0" encoding="UTF-8"?>
<svg width="12px" height="12px" viewBox="0 0 12 12" version="1.1" xmlns="http://www.w3.org/2000/svg" xmlns:xlink="http://www.w3.org/1999/xlink">
    <!-- Generator: sketchtool 40.3 (33839) - http://www.bohemiancoding.com/sketch -->
    <title>199EB4D7-B456-4302-A8DA-BBC4C0C25BF0</title>
    <desc>Created with sketchtool.</desc>
    <defs></defs>
    <g id="Page-1" stroke="none" stroke-width="1" fill="none" fill-rule="evenodd" opacity="0.799999952">
        <g id="Home-screen" transform="translate(-837.000000, -33.000000)" stroke="#FFFFFF">
            <g id="header">
                <g id="search-icon" transform="translate(837.000000, 33.000000)">
                    <path d="M5.2073347,8.64259536 C3.24120281,8.64259536 1.6473544,7.07656661 1.6473544,5.14169278 C1.6473544,3.20681895 3.24120281,1.6376644 5.2073347,1.6376644 C7.1734666,1.6376644 8.76762759,3.20681895 8.76762759,5.14169278 C8.76762759,7.07656661 7.1734666,8.64259536 5.2073347,8.64259536 L5.2073347,8.64259536 Z M10.9050536,10.4555628 L8.32345058,7.91428259 C8.99924981,7.17971821 9.41466941,6.21071839 9.41466941,5.14169278 C9.41466941,2.85360288 7.53105879,1 5.2073347,1 C2.88361062,1 1,2.85360288 1,5.14169278 C1,7.42665687 2.88361062,9.28025975 5.2073347,9.28025975 C6.21134355,9.28025975 7.13220596,8.9332953 7.85551744,8.35502122 L10.4474357,10.9056788 C10.5740308,11.030711 10.7787711,11.030711 10.9050536,10.9056788 C11.0316488,10.7837724 11.0316488,10.580595 10.9050536,10.4555628 L10.9050536,10.4555628 Z" id="serach-icon"></path>
                </g>
            </g>
        </g>
    </g>
</svg>